<svg width="60" height="68" viewBox="0 0 60 68" fill="none" xmlns="http://www.w3.org/2000/svg">
<g clip-path="url(#clip0_202_3)">
<g filter="url(#filter0_f_202_3)">
<path d="M30.51 56.523C30.5041 56.6516 30.4488 56.7729 30.3557 56.8618C30.2625 56.9506 30.1387 57.0001 30.01 57C29.72 57 29.5 56.79 29.49 56.523C29.345 53.355 27.734 51.306 24.658 50.376C14.53 47.968 7 38.863 7 28C7 15.297 17.297 5 30 5C42.703 5 53 15.297 53 28C53 38.863 45.47 47.968 35.342 50.376C32.266 51.306 30.655 53.356 30.512 56.523H30.51Z" fill="#FF4433"/>
</g>
<path d="M30.51 56.523C30.5041 56.6516 30.4488 56.7729 30.3557 56.8618C30.2625 56.9506 30.1387 57.0001 30.01 57C29.72 57 29.5 56.79 29.49 56.523C29.345 53.355 27.734 51.306 24.658 50.376C14.53 47.968 7 38.863 7 28C7 15.297 17.297 5 30 5C42.703 5 53 15.297 53 28C53 38.863 45.47 47.968 35.342 50.376C32.266 51.306 30.655 53.356 30.512 56.523H30.51Z" fill="#FF4433"/>
<path d="M30 68C27.79 68 26 66.21 26 64C26 61.79 27.79 60 30 60C32.21 60 34 61.79 34 64C34 66.21 32.21 68 30 68Z" fill="white"/>
<path fill-rule="evenodd" clip-rule="evenodd" d="M29.9997 66.0005C30.266 66.0065 30.5309 65.9592 30.7787 65.8615C31.0266 65.7638 31.2524 65.6175 31.4429 65.4313C31.6334 65.245 31.7848 65.0227 31.8882 64.7771C31.9916 64.5316 32.0449 64.2679 32.0449 64.0015C32.045 63.7351 31.9918 63.4713 31.8886 63.2258C31.7853 62.9802 31.634 62.7577 31.4436 62.5714C31.2532 62.3851 31.0274 62.2387 30.7797 62.1408C30.5319 62.043 30.267 61.9956 30.0007 62.0015C29.4781 62.013 28.9809 62.2287 28.6153 62.6023C28.2498 62.9759 28.0451 63.4778 28.0449 64.0005C28.0448 64.5232 28.2493 65.0251 28.6146 65.3989C28.98 65.7727 29.4772 65.9886 29.9997 66.0005Z" fill="#FF4433"/>
<path fill-rule="evenodd" clip-rule="evenodd" d="M28 33.2V38H39.4C39.4788 38 39.5568 37.9845 39.6296 37.9543C39.7024 37.9242 39.7685 37.88 39.8243 37.8243C39.88 37.7685 39.9242 37.7024 39.9543 37.6296C39.9845 37.5568 40 37.4788 40 37.4V23.6C40 23.5212 39.9845 23.4432 39.9543 23.3704C39.9242 23.2976 39.88 23.2315 39.8243 23.1757C39.7685 23.12 39.7024 23.0758 39.6296 23.0457C39.5568 23.0155 39.4788 23 39.4 23H34.446L34.288 25H38V26H34.21L34.051 28H38V29H33.972L33.599 33.715C33.5966 33.7549 33.5863 33.7939 33.5687 33.8299C33.5512 33.8658 33.5267 33.8978 33.4966 33.9242C33.4666 33.9506 33.4317 33.9708 33.3938 33.9837C33.3559 33.9965 33.3159 34.0017 33.276 33.999C33.1996 33.9915 33.1289 33.9555 33.0778 33.8983C33.0266 33.8411 32.9989 33.7667 33 33.69V17.4C33 17.2939 32.9579 17.1922 32.8828 17.1172C32.8078 17.0421 32.7061 17 32.6 17H32V16.4C32 16.2939 31.9579 16.1922 31.8828 16.1172C31.8078 16.0421 31.7061 16 31.6 16H21.4C21.2939 16 21.1922 16.0421 21.1172 16.1172C21.0421 16.1922 21 16.2939 21 16.4V17H20.4C20.2939 17 20.1922 17.0421 20.1172 17.1172C20.0421 17.1922 20 17.2939 20 17.4V37.4C20 37.5591 20.0632 37.7117 20.1757 37.8243C20.2883 37.9368 20.4409 38 20.6 38H25V33.2C25 33.09 25.09 33 25.2 33H27.8C27.91 33 28 33.09 28 33.2ZM23.5 30V24H25.5V30H23.5ZM27.5 24V30H29.5V24H27.5ZM23.5 22V19H25.5V22H23.5ZM27.5 19V22H29.5V19H27.5ZM35 32V31H38V32H35Z" fill="white"/>
</g>
<defs>
<filter id="filter0_f_202_3" x="1" y="-1" width="58" height="64" filterUnits="userSpaceOnUse" color-interpolation-filters="sRGB">
<feFlood flood-opacity="0" result="BackgroundImageFix"/>
<feBlend mode="normal" in="SourceGraphic" in2="BackgroundImageFix" result="shape"/>
<feGaussianBlur stdDeviation="3" result="effect1_foregroundBlur_202_3"/>
</filter>
<clipPath id="clip0_202_3">
<rect width="60" height="68" fill="white"/>
</clipPath>
</defs>
</svg>
